<svg width="300" viewBox="0 0 706 187" fill="none" xmlns="http://www.w3.org/2000/svg">
      <path d="M29.5 151L74.5 148V179.739L0 186.348V0H29.5V151Z" fill="#DB202C"/>
      <path d="M476.5 140.5L523 144.5V174.837L446.5 172.127V0H476.5V140.5Z" fill="#DB202C"/>
      <path d="M633.5 0C635.789 7.94455 642.751 26.8018 651.864 50.499L674 0H704C694.547 21.6984 680.424 54.4374 666.342 87.6738C682.101 127.737 694.412 158.365 706 186.877L673.5 184.167L650.61 125.087C637.924 155.535 633.38 165.627 628 180.789L595.5 178.671L635.916 86.8838L602.5 0H633.5Z" fill="#DB202C"/>
      <path d="M576 177.519L547.5 175.995V0H576V177.519Z" fill="#DB202C"/>
      <path fill-rule="evenodd" clip-rule="evenodd" d="M203 172.924L170.5 174.186L164.5 140.5L129 141.5L123.5 176.546L91.5 178.541L128 0H165.5L203 172.924ZM135 112.5H159L146 51.5L135 112.5Z" fill="#DB202C"/>
      <path d="M290.5 99.5V0H318.5V170.709L286 170.987L250.5 75V171.596L221 172.35V0H253L290.5 99.5Z" fill="#DB202C"/>
      <path d="M426 28H378.5V72.5H415V102H378.5V170.881L347 170.681V0H426V28Z" fill="#DB202C"/>
    </svg>